<?xml version="1.0" standalone="no"?><!DOCTYPE svg PUBLIC "-//W3C//DTD SVG 1.1//EN" "http://www.w3.org/Graphics/SVG/1.1/DTD/svg11.dtd"><svg t="1620631561505" class="icon" viewBox="0 0 1024 1024" version="1.1" xmlns="http://www.w3.org/2000/svg" p-id="2386" xmlns:xlink="http://www.w3.org/1999/xlink" width="200" height="200"><defs><style type="text/css"></style></defs><path d="M933.3632 572.885333c-18.965333-61.124267-58.897067-105.7792-83.7248-129.237333 2.577067-10.0864 4.3264-20.334933 4.3264-30.848 0-27.234133-9.117867-53.162667-25.352533-76.910933 0.234667-4.898133 0.840533-9.693867 0.840533-14.647467C829.4528 143.8208 687.415467 0 512.200533 0 336.989867 0 194.952533 143.8208 194.952533 321.237333c0 5.1968 0.622933 10.2272 0.878934 15.36-15.940267 23.552-24.917333 49.237333-24.917334 76.202667 0 10.282667 1.6896 20.296533 4.1472 30.173867-24.759467 23.261867-65.28 68.224-84.424533 129.911466-28.416 91.575467-19.9168 181.981867 9.002667 191.8208 18.666667 6.357333 44.612267-19.2768 68.334933-62.685866 17.4336 47.761067 45.0816 90.679467 80.1024 126.6432-57.826133 13.248-98.158933 41.928533-98.158933 75.426133 0 46.0288 75.712 83.3408 169.1008 83.3408 69.230933 0 128.5632-20.552533 154.722133-49.911467 12.6464 1.2928 25.408 2.193067 38.408533 2.193067 12.868267 0 25.501867-0.878933 38.020267-2.1504 26.180267 29.333333 85.482667 49.8688 154.6752 49.8688 93.3888 0 169.1008-37.312 169.1008-83.345067 0-33.425067-40.1792-62.045867-97.809067-75.328 34.978133-35.899733 62.609067-78.7328 80.064-126.395733 23.68 43.2128 49.540267 68.6848 68.16 62.344533 28.919467-9.8432 37.418667-100.245333 9.002667-191.8208z" p-id="2387" fill="#333333"></path></svg>