<?xml version="1.0" standalone="no"?><!DOCTYPE svg PUBLIC "-//W3C//DTD SVG 1.1//EN" "http://www.w3.org/Graphics/SVG/1.1/DTD/svg11.dtd"><svg t="1620631708851" class="icon" viewBox="0 0 1158 1024" version="1.1" xmlns="http://www.w3.org/2000/svg" p-id="3426" xmlns:xlink="http://www.w3.org/1999/xlink" width="226.171875" height="200"><defs><style type="text/css"></style></defs><path d="M1043.787 989.996l-103.783-58.313a375.49 375.49 0 0 1-137.59 25.815 318.882 318.882 0 0 1-312.265-202.127 228.924 228.924 0 0 1-10.68-69.712c0-149.974 144.536-271.643 323.01-271.643a380.012 380.012 0 0 1 89.172 10.418 283.698 283.698 0 0 1 233.838 261.16 255.853 255.853 0 0 1-110.53 204.878l41.67 87.534a8.78 8.78 0 0 1-0.394 8.255 8.78 8.78 0 0 1-7.993 4.717 9.566 9.566 0 0 1-4.455-0.982z m-362.06-419.324a39.312 39.312 0 0 0-33.742 44.095 39.312 39.312 0 0 0 43.964 33.742 39.312 39.312 0 0 0 33.742-33.742 48.484 48.484 0 0 0 0-10.352 39.312 39.312 0 0 0-38.918-34.07 38.394 38.394 0 0 0-5.308 0.327z m198.458 39.312a39.312 39.312 0 0 0 39.312 39.312 39.312 39.312 0 0 0 39.311-39.312 39.312 39.312 0 0 0-39.311-39.312 39.312 39.312 0 0 0-39.246 39.312z m-762.25 199.834a5.766 5.766 0 0 1-2.49-7.666l64.602-135.1A339.652 339.652 0 0 1 32.694 394.818c0-199.965 192.758-361.994 430.134-361.994 236.393 0 428.168 160.457 430.003 358.783a420.437 420.437 0 0 0-90.68-9.959 386.563 386.563 0 0 0-249.43 87.272 282.191 282.191 0 0 0-106.142 217 278.522 278.522 0 0 0 9.304 70.498 499.322 499.322 0 0 1-176.443-34.332l-156.002 87.665a6.159 6.159 0 0 1-3.014 0.786 5.897 5.897 0 0 1-2.424-0.72z m446.906-516.16a52.022 52.022 0 0 0 52.416 51.956 51.957 51.957 0 0 0 52.022-51.957 51.891 51.891 0 0 0-52.022-52.415 51.957 51.957 0 0 0-52.35 52.415z m-309.644 0a51.957 51.957 0 0 0 52.023 51.956 52.415 52.415 0 0 0 52.415-52.415 52.415 52.415 0 0 0-52.415-52.416 52.415 52.415 0 0 0-51.63 52.874z" p-id="3427" fill="#333333"></path></svg>