<?xml version="1.0" encoding="utf-8"?>
<!-- Generator: Adobe Illustrator 23.0.0, SVG Export Plug-In . SVG Version: 6.00 Build 0)  -->
<svg version="1.1" id="图层_1" xmlns="http://www.w3.org/2000/svg" xmlns:xlink="http://www.w3.org/1999/xlink" x="0px" y="0px"
	 viewBox="0 0 1784.9 230" style="enable-background:new 0 0 1784.9 230;" xml:space="preserve">
<style type="text/css">
	.st0{fill-rule:evenodd;clip-rule:evenodd;fill:#FFFFFF;}
	.st1{fill:#FFFFFF;}
</style>
<path class="st0" d="M110,155.2L91.7,79.5l-17.4,75.8H110V155.2z M57.8,227.7h-54L64.2,16.2h55.9l60.5,211.4h-55l-6.4-27.6h-55
	L57.8,227.7L57.8,227.7z M199.2,227.7v-154H244v31c7.3-23.7,19.8-35.6,37.5-35.6c1.2,0,2.5,0.4,3.7,1.1c1.2,0,2.1,0,2.7,0v60.9
	c-0.6,0-2.1-0.4-4.6-1.1c-2.5-0.8-4.3-1.2-5.5-1.2c-20.1-0.7-29.9,14.6-29.3,46v52.9L199.2,227.7L199.2,227.7z M302,179.4h46.7
	c0,6.9,1.8,11.8,5.5,14.9c3.1,2.3,7,3.8,11.9,4.6c10.4-0.8,15.6-5.3,15.6-13.7c0-6.9-8.6-12.3-25.7-16.1
	c-33-8.4-49.5-24.9-49.5-49.4c0.6-32.2,19.9-49,57.7-50.5c38.5,0,58.9,16.1,61.4,48.2h-44.9c0-4.6-1.5-8-4.6-10.3
	c-3-3-6.4-4.6-10.1-4.6c-9.1,0-13.7,3.8-13.7,11.5c0,5.3,8.3,10,24.7,13.8c35.5,9.9,53.2,26.8,53.2,50.6
	c-0.6,33.7-22.6,50.9-66,51.7C325.2,229.2,304.4,212.3,302,179.4L302,179.4z M452.4,227.7V16.2h49.5v77
	c9.1-16.1,21.4-24.1,36.6-24.1c31.8,0,47.6,22.2,47.6,66.6v91.9h-48.5V146c0-19.2-5.8-28.7-17.4-28.7c-12.8-0.8-19,10-18.3,32.2
	v78.1L452.4,227.7L452.4,227.7z M745.8,132.3h-49.4c0-6.9-1.6-12.2-4.6-16.1c-3.1-3.9-7.3-5.8-12.8-5.8c-14,0-21.4,13.8-22,41.4
	c0,25.3,7.3,38.3,22,39.1c11,0,17.1-7.6,18.3-23h49.5c-3.7,40.6-26.3,61.2-67.8,62c-45.8-1.5-69.3-27.6-70.5-78.1
	c1.8-52.8,25.3-80.4,70.5-82.7C719.2,70.6,741.5,91.7,745.8,132.3L745.8,132.3z M839.5,110.5c-14.1,0.8-21.4,13.8-22,39.1
	c0.6,26.8,7.6,40.6,21.1,41.4c14.1,0,21.1-13.8,21.1-41.4C859,123.5,852.3,110.5,839.5,110.5L839.5,110.5z M768.9,151.8
	c1.8-52.8,25.1-80.4,69.6-82.7c44.6,2.3,68.1,29.1,70.6,80.4c-1.2,52.1-24.8,78.9-70.6,80.4C793.4,228.5,770.1,202.4,768.9,151.8
	L768.9,151.8z M999.1,110.5c-14.1,0.8-21.4,13.8-22,39.1c0.6,26.8,7.6,40.6,21.1,41.4c14.1,0,21.1-13.8,21.1-41.4
	C1018.6,123.5,1011.9,110.5,999.1,110.5L999.1,110.5z M928.6,151.8c1.8-52.8,25-80.4,69.6-82.7c44.6,2.3,68.1,29.1,70.6,80.4
	c-1.2,52.1-24.7,78.9-70.6,80.4C953,228.5,929.8,202.4,928.6,151.8z"/>
<path class="st0" d="M1072.7,29.9c0-6.8,2.4-12.7,7.2-17.5c4.8-4.8,10.7-7.2,17.6-7.2c6.8,0,12.7,2.4,17.5,7.2s7.2,10.6,7.2,17.5
	s-2.4,12.7-7.2,17.5c-4.8,4.8-10.7,7.2-17.5,7.2c-6.9,0-12.8-2.4-17.6-7.2S1072.7,36.8,1072.7,29.9L1072.7,29.9z M1075.8,29.9
	c0,6,2.1,11.2,6.3,15.4c4.2,4.2,9.4,6.3,15.3,6.3c6,0,11.1-2.1,15.4-6.3c4.2-4.2,6.3-9.3,6.3-15.4c0-6-2.1-11.1-6.3-15.4
	c-4.2-4.2-9.3-6.3-15.3-6.3s-11.1,2.1-15.3,6.3C1077.9,18.8,1075.8,23.9,1075.8,29.9L1075.8,29.9z M1109.5,45.3l-4-8.4
	c-0.8-1.7-1.7-3-2.5-4c-0.9-0.9-1.8-1.6-2.6-1.8c2.5-0.5,4.4-1.5,5.8-3s2.1-3.3,2.1-5.5c0-2.7-1-4.8-3-6.3s-4.9-2.3-8.5-2.3h-9v31.3
	h4.7v-13h2.8c1,0,1.9,0.5,2.8,1.4c0.9,1,1.7,2.3,2.6,4.1l3.3,7.5L1109.5,45.3L1109.5,45.3z M1092.3,18v10.4h4.6
	c2.1,0,3.6-0.4,4.7-1.3s1.6-2.2,1.6-3.9c0-1.9-0.6-3.2-1.7-4s-2.9-1.2-5.3-1.2H1092.3z"/>
<g>
	<path class="st1" d="M1310,161.2h29.4v-26.8H1310v-18.2h29.4V89.4H1310V71.2h31V43.4h-31.8l8-4l-1.2-2.3
		c-5.2-9.7-11-19.3-17.2-28.3l-1.2-1.8l-21.9,11.4l0.8-2.3l-27-8.4l-0.8,2.2c-8.4,21.5-19,40.4-31.4,56.4V46.5h12.7V18.6h-81.5v27.8
		h40.2v47.2h-10.8l6.9-41.8h-28l-8.2,46l0,23.6h26.5c-7.9,15.8-18.1,30.6-30.2,44.2l-1,1.2l0.6,1.4c5.6,14.1,8.9,23.5,10.1,28.2
		l1.2,4.7l3.2-3.6c1.2-1.3,2.3-2.7,3.4-4.1l0.1,0.3c1.9,7.2,3.6,16,5,26.3l0.3,2.2h14.5c11.8,0,20.4-2.1,26.2-6.5
		c5.9-4.5,8.9-11.9,8.9-22.2v-72.1h12.3V96.2l0.3-0.4v126h29.3V208h84.1v-27.4H1310V161.2z M1217.1,93.6V81.1
		c2.6,3.7,5.2,7.9,8,12.6H1217.1z M1281.1,71.2v18.2h-22.1V71.2H1281.1z M1281.1,116.2v18.2h-22.1v-18.2H1281.1z M1281.1,161.2v19.5
		h-22.1v-19.5H1281.1z M1275,21.6c3.2,5.5,6.9,12.8,11,21.8h-21.3c4-7.6,7.3-15.1,9.9-22.4L1275,21.6z M1188.6,150.8V184
		c0,6.9-3.2,7.8-6.3,7.8c-4.5,0-10.3-0.4-17.4-1.3l-0.5-0.1C1173.9,178.5,1182,165.2,1188.6,150.8z"/>
	<path class="st1" d="M1437.8,18.9l-33.2-10.4l-0.7,2.4c-12,39.3-26.2,70.9-42.2,93.9l-0.7,1l0.3,1.1c3.4,12,6.5,24.9,9.2,38.3
		l1.1,5.5l3.3-4.6c4.2-5.7,8.3-11.6,12.1-17.5v92.4h31.7V70.7c7-15.8,13.1-32.4,18.3-49.4L1437.8,18.9z"/>
	<polygon class="st1" points="1509,11.3 1475,11.3 1475,69.1 1421.6,69.1 1421.6,102 1475,102 1475,180.2 1427.1,180.2 
		1427.1,213.1 1556.8,213.1 1556.8,180.2 1509,180.2 1509,102 1561.9,102 1561.9,69.1 1509,69.1 	"/>
	<path class="st1" d="M1775.4,103.2c-13.9-2.4-26-5.2-36.2-8.5c11.7-10.3,21.5-22.9,29-37.3l0.3-0.5V29.4h-62.1
		c2.3-4.4,4.6-8.9,6.8-13.5l1.4-3l-33-5.5l-0.8,1.8c-7.7,17-17.5,33-29.3,47.6v-10h-19.6V9.6H1602v37.2h-23.3v32.5h20.9
		c-5,18.2-12.3,36.1-22,53.3l-0.4,0.8l0.2,0.9c2.1,11.6,4.2,24.6,6.3,38.6l1.1,7.2l3.6-6.4c5.1-9.1,9.7-18.4,13.7-27.8v76.4h29.9
		v-87.6c2.2,2,4.4,4,6.6,6l2.1,1.9l7.1-9.8l1.3,3.1l2.1-0.5c0.9-0.2,1.7-0.4,2.6-0.7V222h31.5v-11h47.5v10.6h31.5v-87.3
		c1.4,0.4,2.9,0.7,4.4,1l2.6,0.6l0.4-2.6c1.5-9.4,3.6-18.5,6-27l0.8-2.7L1775.4,103.2z M1732.5,161.8v18H1685v-18H1732.5z
		 M1631.8,79.2h11.6c3.6,4.2,7.5,9.1,11.5,14.6l1.7,2.3l2.1-2c4-3.8,8-7.9,11.8-12.2c3.4,4.3,7.1,8.4,11,12.3
		c-10.5,4-23,7.7-37.1,11l-12.6-9V79.2z M1729.6,58.7c-5.1,8-11.9,15.1-20.3,21.1c-7.2-5.5-13.7-12.6-19.4-21.1H1729.6z
		 M1667.8,130.6c15.9-4.8,29.8-10.2,41.5-16.1c11.3,6.1,25,11.5,40.8,16.1H1667.8z"/>
</g>
</svg>
